<svg width="28" height="35" viewBox="0 0 28 35" fill="none" xmlns="http://www.w3.org/2000/svg">
<path d="M24.25 24.2308V24.3325L24.321 24.4053L27.75 27.9222V29.3654H0.25V27.9222L3.679 24.4053L3.75 24.3325V24.2308V15.2564C3.75 9.81128 6.56971 5.34196 11.4342 4.1557L11.625 4.10918V3.91282V2.69231C11.625 1.33463 12.6915 0.25 14 0.25C15.3085 0.25 16.375 1.33463 16.375 2.69231V3.91282V4.10934L16.566 4.15575C21.4473 5.34195 24.25 9.82852 24.25 15.2564V24.2308ZM21 26.2756H21.25V26.0256V15.2564C21.25 12.9833 20.5754 10.9048 19.327 9.38974C18.075 7.87023 16.2547 6.92949 14 6.92949C11.7453 6.92949 9.92502 7.87023 8.673 9.38974C7.42462 10.9048 6.75 12.9833 6.75 15.2564V26.0256V26.2756H7H21ZM17.2409 31.6603C17.1152 33.3861 15.6997 34.75 14 34.75C12.3003 34.75 10.8848 33.3861 10.7591 31.6603H17.2409Z" fill="#222222" stroke="white" stroke-width="0.5"/>
</svg>
