<svg width="35" height="35" viewBox="0 0 35 35" fill="none" xmlns="http://www.w3.org/2000/svg">
<path d="M23.2599 22.1925L23.3325 22.2626H23.4334H24.9106L34.6466 32.0181L32.0181 34.6466L22.2626 24.9106V23.4334V23.3325L22.1925 23.2599L21.6522 22.6995L21.4883 22.5296L21.3093 22.6835C19.0715 24.6072 16.1671 25.7649 13.0074 25.7649C5.9614 25.7649 0.25 20.0535 0.25 13.0074C0.25 5.9614 5.9614 0.25 13.0074 0.25C20.0535 0.25 25.7649 5.9614 25.7649 13.0074C25.7649 16.1671 24.6072 19.0715 22.6835 21.3093L22.5296 21.4883L22.6995 21.6522L23.2599 22.1925ZM3.75229 13.0074C3.75229 18.1284 7.88651 22.2626 13.0074 22.2626C18.1284 22.2626 22.2626 18.1284 22.2626 13.0074C22.2626 7.88651 18.1284 3.75229 13.0074 3.75229C7.88651 3.75229 3.75229 7.88651 3.75229 13.0074Z" fill="#222222" stroke="white" stroke-width="0.5"/>
</svg>
